<?xml version="1.0" encoding="UTF-8"?>
<svg id="Layer_1" data-name="Layer 1" xmlns="http://www.w3.org/2000/svg" viewBox="0 0 201.73 98.73">
  <path d="M193.61,90.49c0-4.52,1.3-9.04,2.66-13.75,2.79,2.66,3.66,6.13,3.66,11.71s-1.24,8.11-3.28,8.11c-1.92,0-3.04-2.54-3.04-6.07M179.12,96.93h.37c2.54,0,4.58.5,7.49,1.8l.12-.25c-1.92-1.61-3.34-4.21-3.65-23.85V31.34c0-27.75,1.49-29.42,3.96-29.42,1.98,0,2.6,1.12,2.6,4.21,0,4.4-1.36,11.15-1.36,18.52s3.65,15.3,3.65,17.96c0,1.79-.62,2.97-2.79,3.22-2.91.37-4.71.99-4.71,3.9,0,2.42,1.3,3.53,5.08,3.84,1.67.12,2.42,1.12,2.42,3.28,0,4.58-6.19,17.9-6.19,30.29,0,8.55,4.03,11.46,8.73,11.46,4.95,0,6.88-2.66,6.88-10.28,0-6.13-1.8-10.16-5.08-12.82,1.49-5.02,2.91-10.16,2.91-15.61,0-6.69-3.04-8.36-8.36-8.36-2.66,0-4.83-.12-4.83-1.92s1.67-1.92,3.41-1.92c6.19,0,9.79-1.49,9.79-7.06,0-2.79-3.28-10.9-3.28-16.23,0-5.64.74-11.71.74-14.74,0-7.12-3.78-9.41-9.48-9.41-3.1,0-5.89,1.55-8.43,1.55s-4.58-.5-7.49-1.8l-.12.25c2.17,1.8,3.72,4.95,3.72,32.52v33.2c0,27.56-1.55,30.72-3.72,32.52l.12.25c2.91-1.3,4.95-1.8,7.49-1.8M153.79.25c-7,0-12.7,5.88-12.7,48s5.45,50.36,13.19,50.36c3.53,0,6.32-1.42,8.86-1.42.99,0,2.04.37,3.04,1.42l.25-.12c-1.61-4.09-2.54-10.65-2.54-20.19,0-11.4.43-18.52.93-26.01h-.93c-1.49,15.86-4.4,29.67-6.44,38.46-.99,4.27-2.04,6.07-3.41,6.07-3.72,0-3.22-6.94-3.22-48.56,4.95,1.8,4.4,5.33,6.5,28.24h.87c-1.12-18.02-.87-38.77,0-55.81h-.87c-2.11,21.31-1.55,24.46-6.5,26.26,0-41.07-.12-44.9,3.72-44.9,1.36,0,2.42,1.8,3.41,6.07,1.8,7.62,3.96,19.7,5.2,33.39h.87c-.37-5.95-.37-11.64-.37-20.94s1.55-15.79,3.34-20.13l-.31-.19c-.99,1.05-1.98,1.42-3.04,1.42-2.79,0-5.95-1.42-9.85-1.42M127.71,96.93h.37c2.54,0,4.58.5,7.49,1.8l.12-.25c-1.92-1.61-3.35-4.21-3.65-23.85v-41.87c0-27.56,1.55-30.72,3.72-32.52l-.12-.25c-2.91,1.3-4.95,1.8-7.49,1.8h-.43c-2.54,0-4.58-.5-7.49-1.8l-.12.25c2.17,1.8,3.72,4.95,3.72,32.52v33.2c0,27.56-1.55,30.72-3.72,32.52l.12.25c2.91-1.3,4.95-1.8,7.49-1.8M103,.25l-.12.31c2.17,1.73,4.52,4.89,5.33,32.08l1.79,60.08c.06,2.17-.8,3.22-1.79,3.22-.87,0-1.73-.56-1.92-3.22l-5.2-82.69c-.5-7.74-3.9-9.79-8.36-9.79s-5.95,1.92-5.95,5.88l-.12,62.25c-.06,25.39-2.79,28.31-4.83,30.1l.12.25c2.54-1.43,4.09-1.8,6.07-1.8,2.29,0,3.96.5,6.63,1.8l.12-.25c-2.54-2.17-4.52-3.96-4.95-29.98l-.99-62c-.06-2.04.37-3.16,1.49-3.16,1.05,0,1.79.5,1.92,2.91l5.33,85.47c.31,5.33,2.42,6.87,7.49,6.87,4.34,0,6.88-1.3,6.81-5.76l-.62-59.95c-.31-28.68,2.42-30.47,4.58-32.33l-.12-.31c-2.66,1.18-4.34,1.8-6.75,1.8-1.86,0-3.41-.37-5.95-1.8M62.25,96.81c-3.53,0-5.08-.99-5.08-4.21,0-4.4,3.72-11.15,3.72-18.52,0-16.23-10.41-16.6-10.41-24.84s10.78-12.45,10.78-24.59c0-7.37-3.72-14.12-3.72-18.52,0-3.1,1.42-4.09,4.71-4.09,3.47,0,4.95.99,4.95,4.09,0,4.4-3.65,11.15-3.65,18.52,0,12.14,10.78,16.1,10.78,24.59s-10.41,8.61-10.41,24.84c0,7.37,3.65,14.12,3.65,18.52,0,3.22-1.61,4.21-5.33,4.21M62.25,98.61c8.67,0,14-2.29,14-9.54,0-5.33-4.21-9.11-4.21-14.74,0-12.76,4.46-19.14,4.46-25.21s-4.83-11.71-4.83-24.71c0-5.64,3.41-10.53,3.41-16.29S70.11.25,62.25.25s-12.57,2.29-12.57,7.87,3.47,10.65,3.47,16.29c0,13.01-4.83,18.52-4.83,24.71s4.46,12.45,4.46,25.21c0,5.64-4.21,9.41-4.21,14.74,0,7.25,5.33,9.54,13.69,9.54M5.82,96.93c2.17,0,3.84.62,6.38,1.8l.12-.25c-2.91-2.42-4.64-7.87-4.52-30.23l.31-62c0-2.66.5-3.72,1.3-3.72.74,0,1.11.68,1.24,3.47,0,1.24,1.67,83.31,1.79,84.98.25,5.33,2.29,6.81,7.18,6.81,4.58,0,6.88-1.74,6.88-7.06,0-1.67.12-80.46.12-83.99s.62-4.21,1.55-4.21c.87,0,1.24,1.05,1.24,4.09l-.06,59.46c0,29.17-1.67,30.85-3.47,32.39l.12.25c3.04-1.43,5.33-1.8,8.11-1.8,3.04,0,5.58.25,8.98,1.8l.12-.25c-2.11-1.8-4.02-4.95-5.33-32.52l-2.79-59.34c-.19-3.59-1.73-6.38-5.7-6.38-3.16,0-4.58,1.3-4.58,6.87,0,3.28-.87,81.57-.87,84.86,0,2.54-.87,3.72-2.42,3.72-1.36,0-2.54-.68-2.79-3.72-.25-3.41-1.49-78.79-1.67-81.94C16.97,1.8,13.57.25,10.65.25s-4.15,2.17-4.21,5.88l-1.24,62.12c-.5,25.39-3.1,28.49-5.2,30.23l.12.25c2.42-1.3,3.78-1.8,5.7-1.8" fill="#fff" stroke-width="0"/>
</svg>